<svg xmlns="http://www.w3.org/2000/svg" xmlns:xlink="http://www.w3.org/1999/xlink" width="15" height="15" viewBox="0 0 15 15"><defs><path id="1q0xa" d="M1061.992 4617.837a.727.727 0 0 1-.222.635l-2.112 2.098a1.19 1.19 0 0 1-.373.27 1.541 1.541 0 0 1-.452.143 2.263 2.263 0 0 1-.302.016c-.201 0-.527-.034-.977-.103-.45-.07-1-.239-1.651-.51-.651-.27-1.39-.674-2.215-1.215-.826-.54-1.705-1.281-2.636-2.224a17.441 17.441 0 0 1-1.842-2.098 14.953 14.953 0 0 1-1.175-1.85 10 10 0 0 1-.667-1.542 8.178 8.178 0 0 1-.302-1.192 3.928 3.928 0 0 1-.064-.786c.011-.191.016-.296.016-.319.021-.148.07-.299.143-.452.074-.154.164-.278.27-.374l2.112-2.113a.701.701 0 0 1 .508-.222c.138 0 .26.04.365.119.106.08.196.177.27.294l1.7 3.226c.095.169.121.354.079.555a.996.996 0 0 1-.27.51l-.778.778a.263.263 0 0 0-.056.103.39.39 0 0 0-.024.119c.043.223.138.477.286.763.127.254.323.564.588.93.264.365.64.786 1.127 1.263.477.487.9.866 1.27 1.136.371.27.68.469.93.596.248.127.439.203.571.23l.199.04a.37.37 0 0 0 .103-.024.26.26 0 0 0 .103-.056l.905-.921a.972.972 0 0 1 .667-.254c.18 0 .323.031.429.095h.016l3.065 1.811c.222.138.354.313.397.525z"/><linearGradient id="1q0xb" x1="1058" x2="1051" y1="4621" y2="4606" gradientUnits="userSpaceOnUse"><stop offset="0" stop-color="#bb9968"/><stop offset=".01" stop-color="#bb9968"/><stop offset="1" stop-color="#e6b980"/></linearGradient></defs><g><g transform="translate(-1047 -4606)"><use xlink:href="#1q0xa"/><use fill="url(#1q0xb)" xlink:href="#1q0xa"/></g></g></svg>