<svg xmlns="http://www.w3.org/2000/svg" xmlns:xlink="http://www.w3.org/1999/xlink" width="24" height="24" viewBox="0 0 24 24"><defs><path id="ixwja" d="M681 4314.998c0 6.618-5.38 12-11.997 12-2.44 0-4.704-.726-6.602-1.983l-4.612 1.476 1.495-4.459a11.913 11.913 0 0 1-2.284-7.034c0-6.617 5.38-12 11.997-12h.006c6.616 0 11.997 5.385 11.997 12zm-4.809 3.281c-.086-.148-.318-.233-.67-.41-.353-.175-2.068-1.023-2.392-1.135-.318-.12-.62-.078-.86.261-.338.472-.67.953-.938 1.242-.212.225-.556.254-.846.134-.389-.163-1.475-.544-2.814-1.736-1.038-.924-1.743-2.074-1.947-2.42-.204-.352-.021-.556.141-.747.177-.218.345-.375.522-.578.177-.204.276-.31.388-.55.12-.234.035-.473-.05-.65-.085-.177-.79-1.899-1.079-2.597-.233-.556-.41-.577-.762-.593-.12-.005-.254-.013-.402-.013-.459 0-.938.135-1.227.43-.353.36-1.227 1.2-1.227 2.92 0 1.723 1.255 3.388 1.425 3.62.177.233 2.448 3.816 5.974 5.278 2.757 1.143 3.576 1.036 4.203.902.917-.197 2.066-.875 2.355-1.693.29-.82.29-1.516.206-1.665z"/><linearGradient id="ixwjb" x1="675" x2="663" y1="4327" y2="4303" gradientUnits="userSpaceOnUse"><stop offset="0" stop-color="#bb9968"/><stop offset=".01" stop-color="#bb9968"/><stop offset="1" stop-color="#e6b980"/></linearGradient></defs><g><g transform="translate(-657 -4303)"><use xlink:href="#ixwja"/><use fill="url(#ixwjb)" xlink:href="#ixwja"/></g></g></svg>