<svg xmlns="http://www.w3.org/2000/svg" xmlns:xlink="http://www.w3.org/1999/xlink" width="13" height="17" viewBox="0 0 13 17"><defs><path id="xtq1a" d="M758 4612.147c0 4.206-5.817 10.382-6.065 10.644a.609.609 0 0 1-.87 0c-.248-.262-6.065-6.438-6.065-10.644 0-3.39 2.916-6.148 6.5-6.148s6.5 2.757 6.5 6.148zm-3.23 0c0-1.706-1.467-3.094-3.27-3.094s-3.27 1.388-3.27 3.094c0 1.705 1.467 3.092 3.27 3.092s3.27-1.387 3.27-3.092z"/><linearGradient id="xtq1b" x1="756" x2="747" y1="4622.97" y2="4606" gradientUnits="userSpaceOnUse"><stop offset="0" stop-color="#bb9968"/><stop offset=".01" stop-color="#bb9968"/><stop offset="1" stop-color="#e6b980"/></linearGradient></defs><g><g transform="translate(-745 -4606)"><use xlink:href="#xtq1a"/><use fill="url(#xtq1b)" xlink:href="#xtq1a"/></g></g></svg>