<svg xmlns="http://www.w3.org/2000/svg" xmlns:xlink="http://www.w3.org/1999/xlink" width="23" height="20" viewBox="0 0 23 20"><defs><path id="k3vwa" d="M1398 437.31v2.214c0 1.916-1.576 3.475-3.513 3.475h-15.974c-1.937 0-3.513-1.56-3.513-3.475v-2.214c0-.32.262-.58.585-.58.324 0 .586.26.586.58v2.214c0 1.277 1.05 2.317 2.342 2.317h15.974c1.291 0 2.342-1.04 2.342-2.317v-2.214c0-.32.262-.58.585-.58.324 0 .586.26.586.58zm-3.555 2.282c0 .32-.262.58-.585.58h-14.72a.583.583 0 0 1-.585-.58c0-.32.262-.579.585-.579h14.72c.323 0 .585.26.585.58zm-2.066-7.911l-4.904 4.335a1.47 1.47 0 0 1-1.95 0l-4.905-4.335a.575.575 0 0 1-.046-.818.59.59 0 0 1 .827-.047l4.513 3.99V423.58c0-.32.263-.58.586-.58.323 0 .585.26.585.58v11.227l4.514-3.99a.59.59 0 0 1 .827.047.575.575 0 0 1-.047.818z"/></defs><g><g transform="translate(-1375 -423)"><use fill="#fff" xlink:href="#k3vwa"/></g></g></svg>