<?xml version="1.0" standalone="no"?>
<!DOCTYPE svg PUBLIC "-//W3C//DTD SVG 20010904//EN"
 "http://www.w3.org/TR/2001/REC-SVG-20010904/DTD/svg10.dtd">
<svg version="1.0" xmlns="http://www.w3.org/2000/svg"
 width="256.000000pt" height="256.000000pt" viewBox="0 0 256.000000 256.000000"
 preserveAspectRatio="xMidYMid meet">
<metadata>
Created by potrace 1.11, written by Peter Selinger 2001-2013
</metadata>
<g transform="translate(0.000000,256.000000) scale(0.100000,-0.100000)"
fill="#000000" stroke="none">
<path d="M0 2400 l0 -160 320 0 320 0 0 160 0 160 -320 0 -320 0 0 -160z"/>
<path d="M0 2000 l0 -80 320 0 320 0 0 80 0 80 -320 0 -320 0 0 -80z"/>
<path d="M0 880 l0 -880 1280 0 1280 0 0 800 0 800 -320 -240 -320 -240 0 240
0 240 -320 -240 -320 -240 0 240 0 240 -320 -240 -320 -240 0 320 0 320 -320
0 -320 0 0 -880z m1120 0 l0 -80 -160 0 -160 0 0 80 0 80 160 0 160 0 0 -80z
m640 0 l0 -80 -160 0 -160 0 0 80 0 80 160 0 160 0 0 -80z m640 0 l0 -80 -160
0 -160 0 0 80 0 80 160 0 160 0 0 -80z m-1280 -320 l0 -80 -160 0 -160 0 0 80
0 80 160 0 160 0 0 -80z m640 0 l0 -80 -160 0 -160 0 0 80 0 80 160 0 160 0 0
-80z m640 0 l0 -80 -160 0 -160 0 0 80 0 80 160 0 160 0 0 -80z"/>
</g>
</svg>
