<svg xmlns="http://www.w3.org/2000/svg" xmlns:xlink="http://www.w3.org/1999/xlink" width="21" height="17" viewBox="0 0 21 17"><defs><path id="kb5ua" d="M995 4265.551v8.932a1.56 1.56 0 0 1-1.556 1.552h-1.384v1.916c0 .288-.23.499-.5.499a.482.482 0 0 1-.345-.154l-2.248-2.261h-9.933a1.56 1.56 0 0 1-1.557-1.552v-8.932a1.56 1.56 0 0 1 1.557-1.552h14.41c.845 0 1.556.69 1.556 1.552zm-12.316 4.696a1.45 1.45 0 0 0-1.44-1.438 1.45 1.45 0 0 0-1.442 1.438 1.45 1.45 0 0 0 1.441 1.437c.807 0 1.441-.652 1.441-1.437zm5.053 0a1.45 1.45 0 0 0-1.44-1.438 1.45 1.45 0 0 0-1.442 1.438 1.45 1.45 0 0 0 1.441 1.437 1.45 1.45 0 0 0 1.441-1.437zm5.034 0a1.45 1.45 0 0 0-1.44-1.438 1.45 1.45 0 0 0-1.442 1.438 1.45 1.45 0 0 0 1.441 1.437 1.45 1.45 0 0 0 1.441-1.437zm-13.737 6.708h6.475v1.457c0 .555-.462 1.015-1.019 1.015h-6.532l-1.48 1.476a.32.32 0 0 1-.23.096.337.337 0 0 1-.327-.327v-1.264h-.903c-.576 0-1.037-.46-1.018-1.054v-5.865c0-.555.46-1.016 1.018-1.016h1.575v3.048a2.44 2.44 0 0 0 2.44 2.434z"/></defs><g><g transform="translate(-974 -4264)"><use fill="#7c869c" xlink:href="#kb5ua"/></g></g></svg>