<svg xmlns="http://www.w3.org/2000/svg" xmlns:xlink="http://www.w3.org/1999/xlink" width="13" height="13" viewBox="0 0 13 13"><defs><path id="hfoga" d="M1153.554 230.558l-3.937 3.94 3.938 3.941a1.501 1.501 0 0 1-1.06 2.562c-.384 0-.768-.147-1.06-.44l-3.939-3.94-3.937 3.94a1.494 1.494 0 0 1-2.12 0 1.501 1.501 0 0 1 0-2.122l3.937-3.94-3.938-3.94a1.499 1.499 0 1 1 2.12-2.122l3.938 3.94 3.938-3.94a1.499 1.499 0 1 1 2.12 2.121z"/></defs><g><g transform="translate(-1141 -228)"><use fill="#dadada" xlink:href="#hfoga"/></g></g></svg>