<svg xmlns="http://www.w3.org/2000/svg" xmlns:xlink="http://www.w3.org/1999/xlink" width="49" height="49" viewBox="0 0 49 49"><defs><path id="h0qra" d="M742.63 3835.62c-.28.291-.657.432-1.024.432s-.744-.151-1.025-.432l-11.82-11.818a20.662 20.662 0 0 1-13.6 5.09c-11.432 0-20.74-9.306-20.74-20.736 0-11.43 9.297-20.736 20.74-20.736 11.432 0 20.74 9.295 20.74 20.736 0 5.197-1.92 9.953-5.091 13.597l11.82 11.819c.561.56.561 1.487 0 2.048zm-27.48-9.629c9.836 0 17.828-8.012 17.828-17.835s-7.992-17.824-17.828-17.824c-9.825 0-17.828 7.99-17.828 17.824 0 9.834 8.003 17.835 17.828 17.835z"/></defs><g><g transform="translate(-694 -3787)"><use fill="#fff" xlink:href="#h0qra"/></g></g></svg>