<svg xmlns="http://www.w3.org/2000/svg" xmlns:xlink="http://www.w3.org/1999/xlink" width="15" height="20" viewBox="0 0 15 20"><defs><path id="4mjfa" d="M835.53 356.89c0-2.7.583-4.89 3.97-4.89 3.387 0 3.97 2.19 3.97 4.89 0 2.702-1.778 4.891-3.97 4.891-2.193 0-3.97-2.19-3.97-4.89zM832 369.25c-.001-.047 0-.165 0 0zm14.999.128c0-.312.002-.045 0 0zm0 0v.366s-1.105 2.257-7.5 2.257c-6.394 0-7.498-2.257-7.498-2.257v-.494c0 .043.004.023.01-.35.085-4.582.728-5.903 5.314-6.743 0 0 .653.844 2.175.844 1.521 0 2.174-.844 2.174-.844 4.637.849 5.243 2.19 5.316 6.895.005.301.007.353.009.326z"/></defs><g><g transform="translate(-832 -352)"><use fill="#7c869c" xlink:href="#4mjfa"/></g></g></svg>