<svg xmlns="http://www.w3.org/2000/svg" xmlns:xlink="http://www.w3.org/1999/xlink" width="13" height="16" viewBox="0 0 13 16"><defs><path id="mfkxa" d="M486.091 2184.352a.378.378 0 0 1-.091-.263v-1.454c0-.106.03-.192.091-.26a.3.3 0 0 1 .234-.104h2.275v-1.34h-2.275a.298.298 0 0 1-.234-.102.377.377 0 0 1-.091-.261v-1.694c0-.099.03-.184.091-.256a.29.29 0 0 1 .234-.107h2.275v-7.148c0-.106.03-.194.091-.262a.298.298 0 0 1 .234-.102h5.474c1.354 0 2.46.463 3.316 1.386.856.925 1.285 2.118 1.285 3.58 0 1.462-.429 2.656-1.285 3.58-.857.924-1.962 1.386-3.316 1.386h-3.453v1.34h5.129a.3.3 0 0 1 .234.103.376.376 0 0 1 .091.261v1.454c0 .107-.03.194-.091.263a.298.298 0 0 1-.234.101h-5.129v2.183a.364.364 0 0 1-.096.26.304.304 0 0 1-.229.103h-1.696a.3.3 0 0 1-.234-.103.376.376 0 0 1-.091-.26v-2.183h-2.275a.298.298 0 0 1-.234-.101zm4.855-5.841h3.25c.717 0 1.296-.235 1.736-.705.44-.469.66-1.084.66-1.84 0-.758-.22-1.372-.66-1.841-.44-.47-1.019-.705-1.736-.705h-3.25z"/></defs><g><g transform="translate(-486 -2171)"><use fill="#d7ae77" xlink:href="#mfkxa"/></g></g></svg>