<svg xmlns="http://www.w3.org/2000/svg" xmlns:xlink="http://www.w3.org/1999/xlink" width="22" height="22" viewBox="0 0 22 22"><defs><path id="2d4ba" d="M414.506 572.072c.045.34-.059.638-.311.89l-2.96 2.935c-.133.15-.307.275-.522.378a2.14 2.14 0 0 1-.634.201c-.015 0-.06.003-.134.011a2.98 2.98 0 0 1-.289.011c-.282 0-.738-.048-1.368-.144-.63-.096-1.402-.334-2.314-.712-.912-.378-1.947-.946-3.104-1.701-1.157-.757-2.388-1.796-3.693-3.115-1.039-1.023-1.899-2.002-2.581-2.936-.682-.935-1.231-1.799-1.646-2.592-.416-.793-.727-1.513-.935-2.158a11.464 11.464 0 0 1-.423-1.668c-.074-.467-.104-.835-.089-1.102.015-.267.023-.415.023-.444a2.17 2.17 0 0 1 .2-.634c.104-.216.23-.39.378-.523l2.96-2.96a.98.98 0 0 1 .711-.31.83.83 0 0 1 .512.166c.148.112.274.249.378.412l2.38 4.516c.134.237.171.497.112.778-.06.282-.185.52-.378.712l-1.09 1.09a.364.364 0 0 0-.078.145.535.535 0 0 0-.034.167c.06.311.193.667.4 1.068.179.355.453.79.824 1.301.37.512.897 1.101 1.58 1.768.667.683 1.26 1.213 1.78 1.59.519.38.953.658 1.301.835.349.179.616.286.801.322l.278.057c.03 0 .078-.012.145-.035a.367.367 0 0 0 .144-.077l1.269-1.29a1.36 1.36 0 0 1 .934-.356c.252 0 .453.045.6.134h.023l4.294 2.536c.312.193.497.438.556.734z"/></defs><g><g transform="translate(-393 -555)"><use fill="red" xlink:href="#2d4ba"/><use fill="#7c869c" xlink:href="#2d4ba"/></g></g></svg>